# AST/ASF file generated using VICON BodyLanguage
# -----------------------------------------------
:version 1.10
:name VICON
:units
  mass 1.0
  length 0.45
  angle deg
:documentation
   .ast/.asf automatically generated from VICON data using
   VICON BodyBuilder and BodyLanguage model FoxedUp or BRILLIANT.MOD
:root
   order TX TY TZ RX RY RZ
   axis XYZ
   position 0 0 0  
   orientation 0 0 0 
:bonedata
  begin
     id 1 
     name lhipjoint
     direction 0.660183 -0.676772 0.325788 
     length 2.75133 
     axis 0 0 0  XYZ
  end
  begin
     id 2 
     name lfemur
     direction 0.34202 -0.939693 0  
     length 7.70317  
     axis 0 0 20  XYZ
    dof rx ry rz
    limits (-160.0 20.0)
           (-70.0 70.0)
           (-60.0 70.0)
  end
  begin
     id 3 
     name ltibia
     direction 0.342105 -0.939662 0   
     length 7.18701   
     axis 0 0 20   XYZ
    dof rx
    limits (-10.0 170.0)
  end
  begin
     id 4 
     name lfoot
     direction 0.14163 -0.389126 0.910232   
     length 2.41719   
     axis -90 7.62852e-016 20   XYZ
    dof rx rz
    limits (-45.0 90.0)
           (-70.0 20.0)
  end
  begin
     id 5 
     name ltoes
     direction 1.53533e-011 -4.21926e-011 1   
     length 1.18611   
     axis -90 7.62852e-016 20   XYZ
    dof rx
    limits (-90.0 20.0)
  end
  begin
     id 6 
     name rhipjoint
     direction -0.6658 -0.67229 0.323631   
     length 2.76968  
     axis 0 0 0  XYZ 
  end
  begin
     id 7 
     name rfemur
     direction -0.34202 -0.939693 0   
     length 7.92547   
     axis 0 0 -20   XYZ
    dof rx ry rz
    limits (-160.0 20.0)
           (-70.0 70.0)
           (-70.0 60.0)
  end
  begin
     id 8 
     name rtibia
     direction -0.342022 -0.939692 0   
     length 7.22641   
     axis 0 0 -20   XYZ
    dof rx
    limits (-10.0 170.0)
 end
 begin
     id 9 
     name rfoot
     direction -0.105675 -0.29034 0.951071   
     length 2.48149  
     axis -90 -7.62852e-016 -20   XYZ
    dof rx rz
    limits (-45.0 90.0)
           (-20.0 70.0)
  end
  begin
     id 10 
     name rtoes
     direction -1.5349e-011 -4.21859e-011 1   
     length 1.23343   
     axis -90 -7.62852e-016 -20   XYZ
    dof rx
    limits (-90.0 20.0)
  end
  begin
     id 11 
     name lowerback
     direction 0.0104173 0.993624 -0.112266   
     length 2.00527   
     axis 0 0 0   XYZ
    dof rx ry rz
    limits (-20.0 45.0)
           (-30.0 30.0)
           (-30.0 30.0)
  end
  begin
     id 12 
     name upperback
     direction 0.00733149 0.999856 -0.0152913   
     length 2.01385   
     axis 0 0 0   XYZ
    dof rx ry rz
    limits (-20.0 45.0)
           (-30.0 30.0)
           (-30.0 30.0)
  end
  begin
     id 13 
     name thorax
     direction 0.0026304 0.999318 0.036841   
     length 2.03734   
     axis 0 0 0   XYZ
    dof rx ry rz
    limits (-20.0 45.0)
           (-30.0 30.0)
           (-30.0 30.0)
  end
  begin
     id 14 
     name lowerneck
     direction 0.0293154 0.998757 0.0403082   
     length 1.65303   
     axis 0 0 0   XYZ
    dof rx ry rz
    limits (-20.0 45.0)
           (-30.0 30.0)
           (-30.0 30.0)
  end
  begin
     id 15 
     name upperneck
     direction -0.0376619 0.998184 -0.0470083   
     length 1.60926   
     axis 0 0 0   XYZ
    dof rx ry rz
    limits (-20.0 45.0)
           (-30.0 30.0)
           (-30.0 30.0)
  end
  begin
     id 16
     name head
     direction -0.0170133 0.999635 -0.0209778  
     length 1.73625  
     axis 0 0 0   XYZ
    dof rx ry rz
    limits (-20.0 45.0)
           (-30.0 30.0)
           (-30.0 30.0)
  end
  begin
     id 17 
     name lclavicle
     direction 0.919857 0.39181 -0.0186333  
     length 3.75313  
     axis 0 0 0   XYZ
    dof ry rz
    limits (-20.0 10.0)
           (0.0 20.0)
  end
  begin
     id 18 
     name lhumerus
     direction 1 -4.48988e-011 1.44029e-027   
     length 5.49313   
     axis 180 -30 -90   XYZ
    dof rx ry rz
    limits (-60.0 90.0)
           (-90.0 90.0)
           (-90.0 90.0)
  end
  begin
     id 19
     name lradius
     direction 1 -4.48924e-011 7.46281e-027   
     length 3.29037   
     axis 180 -30 -90   XYZ
    dof rx
    limits (-10.0 170.0)
  end
  begin
     id 20
     name lwrist
     direction 1 -4.48955e-011 2.19879e-026   
     length 1.64519   
     axis -1.34358e-014 90 90   XYZ
    dof ry
    limits (-180.0 0.0)
 end
  begin
     id 21 
     name lhand
     direction 1 -4.48978e-011 4.39747e-026   
     length 0.729656   
     axis -2.80598e-014 90 90   XYZ
    dof rx rz
    limits (-90.0 90.0)
           (-45.0 45.0)
  end
  begin
     id 22 
     name lfingers
     direction 1 -4.49071e-011 8.79411e-026   
     length 0.588268   
     axis -5.61193e-014 90 90   XYZ
    dof rx
    limits (0.0 90.0)
  end
  begin
     id 23
     name lthumb
     direction 0.707107 -6.34817e-011 0.707107   
     length 0.844638   
     axis -90 45 -9.86923e-015   XYZ
    dof rx rz
    limits (-45.0 45.0)
           (-45.0 45.0)
  end
  begin
     id 24 
     name rclavicle
     direction -0.919898 0.388279 0.0550233   
     length 3.7171  
     axis 0 0 0   XYZ 
    dof ry rz
    limits (-10.0 20.0)
           (-20.0 0.0)
  end
  begin
     id 25 
     name rhumerus
     direction -1 -4.48968e-011 9.98372e-028  
     length 5.23684   
     axis 180 30 90   XYZ
    dof rx ry rz
    limits (-90.0 60.0)
           (-90.0 90.0)
           (-90.0 90.0)
  end
  begin
     id 26 
     name rradius
     direction -1 -4.48956e-011 1.01023e-026   
     length 3.38251   
     axis 180 30 90   XYZ
    dof rx
    limits (-10.0 170.0)
  end
  begin
     id 27 
     name rwrist
     direction -1 -4.4892e-011 2.19886e-026   
     length 1.69126   
     axis -1.34358e-014 -90 -90   XYZ
    dof ry
    limits (-180.0 0.0)
  end
  begin
     id 28
     name rhand
     direction -1 -4.49024e-011 4.39727e-026   
     length 0.691454   
     axis -2.80598e-014 -90 -90   XYZ
    dof rx rz
    limits (-90.0 90.0)
           (-45.0 45.0)
  end
  begin
     id 29
     name rfingers
     direction -1 -4.49097e-011 8.79388e-026   
     length 0.557468   
     axis -5.61193e-014 -90 -90   XYZ
    dof rx
    limits (0.0 90.0)
  end
  begin
     id 30
     name rthumb
     direction -0.707107 -6.34938e-011 0.707107   
     length 0.800416   
     axis -90 -45 9.86923e-015   XYZ
    dof rx rz
    limits (-45.0 45.0)
           (-45.0 45.0)
  end
:hierarchy
  begin
    root lhipjoint rhipjoint lowerback
    lhipjoint lfemur
    lfemur ltibia
    ltibia lfoot
    lfoot ltoes
    rhipjoint rfemur
    rfemur rtibia
    rtibia rfoot
    rfoot rtoes
    lowerback upperback
    upperback thorax
    thorax lowerneck lclavicle rclavicle
    lowerneck upperneck
    upperneck head
    lclavicle lhumerus
    lhumerus lradius
    lradius lwrist
    lwrist lhand lthumb
    lhand lfingers
    rclavicle rhumerus
    rhumerus rradius
    rradius rwrist
    rwrist rhand rthumb
    rhand rfingers
  end

#!OML:ASF H:\BabyWalks\Project 1\Capture day 1\Session 1\baby.ASF
:FULLY-SPECIFIED
:DEGREES
27
root -36.6844 17.5718 -3.71419 -17.4336 72.9887 -19.3491
lowerback 15.0759 -1.29464 1.63604
upperback 7.16856 -1.07569 3.00156
thorax -0.840792 -0.408737 2.38118
lowerneck -5.78918 4.03367 -0.46432
upperneck 14.9245 6.20819 -3.52643
head 5.55377 2.81603 -0.614763
rclavicle -5.74985e-014 1.8487e-014
rhumerus -36.2704 19.0717 -83.0503
rradius 44.1244
rwrist 0.809555
rhand -9.29781 -15.4348
rfingers 7.12502
rthumb 16.6597 -44.7398
lclavicle -5.74985e-014 1.8487e-014
lhumerus -37.7029 4.91797 80.847
lradius 50.2932
lwrist 1.77476
lhand 1.11563 12.2853
lfingers 7.12502
lthumb 26.6585 40.4281
rfemur 14.3779 -1.37278 27.8056
rtibia 6.36111e-015
rfoot -14.3499 -16.4754
rtoes -0.0385994
lfemur -22.0601 7.94291 -11.3624
ltibia 36.3076
lfoot -13.4083 3.89275
ltoes 0.357164
28
root -36.6859 17.5707 -3.71321 -17.4618 72.9985 -19.352
lowerback 15.0597 -1.29741 1.65549
upperback 7.16075 -1.07758 3.00225
thorax -0.840788 -0.409427 2.37093
lowerneck -5.77259 4.02775 -0.445415
upperneck 14.9136 6.19985 -3.54303
head 5.54848 2.81241 -0.624019
rclavicle -6.55989e-014 4.77083e-014
rhumerus -36.3023 19.0524 -83.0771
rradius 44.1339
rwrist 0.80325
rhand -9.30048 -15.4367
rfingers 7.12502
rthumb 16.6572 -44.742
lclavicle -6.55989e-014 4.77083e-014
lhumerus -37.6865 4.90724 80.8355
lradius 50.3193
lwrist 1.77686
lhand 1.09583 12.2768
lfingers 7.12502
lthumb 26.6396 40.4225
rfemur 14.4046 -1.38656 27.8054
rtibia -7.31528e-014
rfoot -14.3614 -16.4688
rtoes -0.0119386
lfemur -22.0306 7.92582 -11.3621
ltibia 36.2817
lfoot -13.4001 3.91577
ltoes 0.294401
29
root -36.6874 17.5699 -3.71222 -17.4953 73.0087 -19.3624
lowerback 15.0466 -1.30048 1.67859
upperback 7.15012 -1.07927 3.00303
thorax -0.845503 -0.409968 2.35878
lowerneck -5.75497 4.02276 -0.424342
upperneck 14.9038 6.1929 -3.56152
head 5.54347 2.80946 -0.634132
rclavicle -2.16178e-014 -1.0138e-014
rhumerus -36.3365 19.0328 -83.1035
rradius 44.1402
rwrist 0.802032
rhand -9.29976 -15.4384
rfingers 7.12502
rthumb 16.6579 -44.7436
lclavicle -2.16178e-014 -1.0138e-014
lhumerus -37.6747 4.89578 80.8237
lradius 50.3449
lwrist 1.78014
lhand 1.07822 12.2615
lfingers 7.12502
lthumb 26.6227 40.4097
rfemur 14.4287 -1.40102 27.8072
rtibia -6.04305e-014
rfoot -14.3766 -16.4611
rtoes 0.0256035
lfemur -22.0035 7.90239 -11.3582
ltibia 36.2577
lfoot -13.3939 3.93945
ltoes 0.245732
30
root -36.6892 17.5692 -3.71125 -17.5297 73.0181 -19.376
lowerback 15.0369 -1.30356 1.70349
upperback 7.13712 -1.0806 3.00423
thorax -0.854508 -0.410328 2.34608
lowerneck -5.73844 4.01944 -0.401285
upperneck 14.8962 6.18868 -3.58326
head 5.53958 2.80769 -0.645339
rclavicle -2.20651e-014 3.24019e-014
rhumerus -36.3735 19.0161 -83.1291
rradius 44.1466
rwrist 0.800476
rhand -9.29798 -15.4371
rfingers 7.12502
rthumb 16.6596 -44.7422
lclavicle -2.20651e-014 3.24019e-014
lhumerus -37.6675 4.88516 80.812
lradius 50.374
lwrist 1.78464
lhand 1.07173 12.2549
lfingers 7.12502
lthumb 26.6165 40.4041
rfemur 14.4499 -1.41481 27.8105
rtibia 1.90833e-014
rfoot -14.3916 -16.4525
rtoes 0.064379
lfemur -21.978 7.87417 -11.3519
ltibia 36.2348
lfoot -13.3895 3.96385
ltoes 0.217241
31
root -36.6909 17.5687 -3.71028 -17.5591 73.0291 -19.3842
lowerback 15.0298 -1.3062 1.7267
upperback 7.12338 -1.08144 3.0056
thorax -0.865668 -0.410493 2.3345
lowerneck -5.71905 4.01698 -0.379694
upperneck 14.8872 6.18568 -3.60484
head 5.53472 2.80651 -0.656255
rclavicle -8.44835e-016 7.15625e-015
rhumerus -36.4109 18.999 -83.1517
rradius 44.1504
rwrist 0.800739
rhand -9.29219 -15.4313
rfingers 7.12502
rthumb 16.6652 -44.7359
lclavicle -8.44835e-016 7.15625e-015
lhumerus -37.6636 4.87432 80.8027
lradius 50.404
lwrist 1.78985
lhand 1.06834 12.2604
lfingers 7.12502
lthumb 26.6133 40.4101
rfemur 14.4712 -1.42958 27.8116
rtibia 1.59028e-014
rfoot -14.4064 -16.4453
rtoes 0.101965
lfemur -21.9508 7.8386 -11.3464
ltibia 36.2114
lfoot -13.3886 3.98942
ltoes 0.205139
32
root -36.6928 17.5685 -3.70937 -17.581 73.0389 -19.3861
lowerback 15.0227 -1.30741 1.74847
upperback 7.11027 -1.08059 3.00706
thorax -0.876158 -0.409841 2.32358
lowerneck -5.69915 4.01492 -0.359311
upperneck 14.8768 6.18342 -3.62737
head 5.52937 2.80561 -0.667249
rclavicle 7.9166e-014 -3.85642e-014
rhumerus -36.4445 18.9817 -83.1703
rradius 44.1499
rwrist 0.805904
rhand -9.28333 -15.4203
rfingers 7.12502
rthumb 16.6737 -44.7242
lclavicle 7.9166e-014 -3.85642e-014
lhumerus -37.6596 4.86661 80.7947
lradius 50.432
lwrist 1.79437
lhand 1.06494 12.265
lfingers 7.12502
lthumb 26.61 40.4152
rfemur 14.4898 -1.44241 27.8114
rtibia 4.13472e-014
rfoot -14.4171 -16.4395
rtoes 0.13339
lfemur -21.9225 7.79789 -11.3412
ltibia 36.1864
lfoot -13.3891 4.01727
ltoes 0.211313
33
root -36.6949 17.5685 -3.70848 -17.5942 73.0481 -19.3804
lowerback 15.0166 -1.3073 1.7672
upperback 7.09703 -1.07836 3.0089
thorax -0.887291 -0.408584 2.31457
lowerneck -5.67704 4.01404 -0.342567
upperneck 14.8641 6.18259 -3.64732
head 5.52274 2.80545 -0.676832
rclavicle -1.69464e-014 2.6339e-014
rhumerus -36.4771 18.9659 -83.1855
rradius 44.149
rwrist 0.81384
rhand -9.2717 -15.4116
rfingers 7.12502
rthumb 16.6849 -44.7146
lclavicle -1.69464e-014 2.6339e-014
lhumerus -37.6566 4.86211 80.7885
lradius 50.4605
lwrist 1.79669
lhand 1.0665 12.2808
lfingers 7.12502
lthumb 26.6115 40.4308
rfemur 14.5059 -1.45383 27.8096
rtibia 2.22639e-014
rfoot -14.4262 -16.4351
rtoes 0.162272
lfemur -21.8946 7.75462 -11.3382
ltibia 36.1579
lfoot -13.3896 4.04995
ltoes 0.219241
34
root -36.6971 17.5686 -3.70765 -17.5973 73.0572 -19.365
lowerback 15.0089 -1.30537 1.78221
upperback 7.08611 -1.07428 3.01091
thorax -0.895113 -0.406455 2.3075
lowerneck -5.65604 4.01299 -0.325718
upperneck 14.8494 6.18168 -3.66913
head 5.51574 2.80514 -0.687011
rclavicle -2.23136e-014 2.93207e-014
rhumerus -36.5034 18.9517 -83.1961
rradius 44.1445
rwrist 0.823471
rhand -9.26031 -15.4022
rfingers 7.12502
rthumb 16.6959 -44.7042
lclavicle -2.23136e-014 2.93207e-014
lhumerus -37.651 4.86091 80.7845
lradius 50.486
lwrist 1.79706
lhand 1.06591 12.2942
lfingers 7.12502
lthumb 26.6109 40.4442
rfemur 14.5202 -1.46428 27.8053
rtibia 1.90833e-014
rfoot -14.4327 -16.4316
rtoes 0.18716
lfemur -21.8656 7.71009 -11.3386
ltibia 36.1253
lfoot -13.3893 4.08592
ltoes 0.224541
35
root -36.6994 17.5689 -3.70683 -17.5887 73.0661 -19.3376
lowerback 15.0022 -1.30188 1.79296
upperback 7.07593 -1.06869 3.01274
thorax -0.902609 -0.403653 2.30243
lowerneck -5.63423 4.01138 -0.315892
upperneck 14.834 6.17988 -3.68531
head 5.50799 2.80443 -0.694393
rclavicle -4.32854e-014 7.2954e-014
rhumerus -36.5254 18.9396 -83.204
rradius 44.1357
rwrist 0.834264
rhand -9.25048 -15.3934
rfingers 7.12502
rthumb 16.7053 -44.6947
lclavicle -4.32854e-014 7.2954e-014
lhumerus -37.6461 4.8621 80.7822
lradius 50.5084
lwrist 1.79616
lhand 1.06259 12.3098
lfingers 7.12502
lthumb 26.6077 40.4603
rfemur 14.5338 -1.47337 27.7979
rtibia 1.59028e-014
rfoot -14.4382 -16.4291
rtoes 0.213198
lfemur -21.8344 7.666 -11.3426
ltibia 36.0883
lfoot -13.3884 4.12369
ltoes 0.231095
36
root -36.7019 17.5694 -3.70602 -17.5686 73.0729 -19.3005
lowerback 14.9944 -1.2963 1.79967
upperback 7.06695 -1.06092 3.01471
thorax -0.908288 -0.39985 2.29942
lowerneck -5.61228 4.00954 -0.303542
upperneck 14.817 6.17762 -3.7032
head 5.49981 2.80353 -0.702763
rclavicle -4.03036e-014 8.44835e-015
rhumerus -36.5407 18.9289 -83.2083
rradius 44.1238
rwrist 0.848202
rhand -9.24022 -15.3889
rfingers 7.12502
rthumb 16.7152 -44.6893
lclavicle -4.03036e-014 8.44835e-015
lhumerus -37.6383 4.86624 80.7818
lradius 50.526
lwrist 1.79326
lhand 1.05703 12.3264
lfingers 7.12502
lthumb 26.6024 40.4778
rfemur 14.5436 -1.47954 27.7892
rtibia 1.59028e-014
rfoot -14.4388 -16.4293
rtoes 0.225543
lfemur -21.8041 7.62377 -11.349
ltibia 36.0478
lfoot -13.3838 4.16318
ltoes 0.234392
37
root -36.7045 17.5699 -3.70524 -17.5387 73.0778 -19.2537
lowerback 14.9874 -1.28905 1.80239
upperback 7.05933 -1.05146 3.01649
thorax -0.912878 -0.395273 2.29821
lowerneck -5.59512 4.00751 -0.29334
upperneck 14.804 6.1753 -3.71893
head 5.49358 2.80249 -0.709964
rclavicle -4.44781e-014 6.85807e-015
rhumerus -36.549 18.9191 -83.2096
rradius 44.108
rwrist 0.868075
rhand -9.23003 -15.3881
rfingers 7.12502
rthumb 16.725 -44.6877
lclavicle -4.44781e-014 6.85807e-015
lhumerus -37.6302 4.87364 80.782
lradius 50.5382
lwrist 1.78859
lhand 1.04556 12.3351
lfingers 7.12502
lthumb 26.5915 40.4881
rfemur 14.5523 -1.48295 27.7787
rtibia -3.18055e-014
rfoot -14.439 -16.4298
rtoes 0.24311
lfemur -21.7731 7.58496 -11.3576
ltibia 36.0047
lfoot -13.377 4.20251
ltoes 0.23823
38
root -36.7074 17.5706 -3.70445 -17.5034 73.0835 -19.2038
lowerback 14.9803 -1.28145 1.8017
upperback 7.05127 -1.04199 3.01905
thorax -0.917874 -0.390783 2.29974
lowerneck -5.57752 4.00559 -0.282664
upperneck 14.7923 6.17332 -3.73545
head 5.48774 2.80158 -0.717461
rclavicle 3.69243e-014 -1.99779e-014
rhumerus -36.5514 18.9111 -83.2079
rradius 44.0875
rwrist 0.889944
rhand -9.22051 -15.3889
rfingers 7.12502
rthumb 16.7342 -44.6877
lclavicle 3.69243e-014 -1.99779e-014
lhumerus -37.6233 4.88294 80.7843
lradius 50.5474
lwrist 1.78274
lhand 1.03362 12.3469
lfingers 7.12502
lthumb 26.58 40.5017
rfemur 14.5576 -1.48663 27.7676
rtibia -6.99722e-014
rfoot -14.436 -16.4306
rtoes 0.252512
lfemur -21.7453 7.54902 -11.3677
ltibia 35.9603
lfoot -13.3656 4.23832
ltoes 0.237229
